<svg version="1" xmlns="http://www.w3.org/2000/svg" width="682.667" height="682.667" viewBox="0 0 512.000000 512.000000"><path d="M238.9 36.4c-.2.2-3.3.7-6.9 1-11.5 1.1-31.5 5.2-41.7 8.6-5.4 1.8-9.2 2-60 2H76v13.2c-.1 7.3-.1 25.6-.1 40.6v27.3l-4.5 7.1c-18.6 29-31 64.1-34.2 96.8-.9 9.3-.9 38.4 0 46.5 1.9 17 6.4 36.4 12.4 52.7 4.4 12 15 33.2 21.7 43.5l4.7 7.1-.1 36.2c0 19.9.2 36.4.5 36.7.2.3 4.9.6 10.3.7 5.4.1 10.4.5 11.2 1 .9.6 1.2.5.8-.1-.4-.6 4.9-1 15.3-1 11.4 0 15.7.3 15.3 1.1-.5.8-.3.8.8 0 1.7-1.3 13.8-1.3 15.8 0 .9.6 1.2.5.8-.1-.4-.7 2.5-1 8.1-1.1 7.6 0 9.8.4 17.2 3.3 4.7 1.8 9.3 3.6 10.3 3.9 1 .3 1.6 1 1.2 1.5-.3.5-.1 1.3.5 1.6.6.4 1 .3.9-.2-.4-2.1.5-2 6.7.2 3.7 1.3 8.3 2.7 10.3 3 2 .3 6.3 1.2 9.6 2 13.1 3.1 22.2 3.9 44 3.9 16.9 0 27.6-.6 34.1-1.8 1.2-.3 3.7-.7 5.5-1 1.9-.3 4.8-.8 6.4-1.2 1.7-.3 3.5-.7 4-.8.6-.1 1.5-.5 2.2-.9.6-.4 1.5-.2 1.9.4.4.8.8.8 1.3 0 .4-.6 1.6-1.2 2.6-1.4 1.1-.2 2.7-.7 3.5-1 4.7-1.8 11.3-3.7 11.8-3.3.2.3 1.2-.2 2.1-1.1 1.5-1.5 1.6-1.5 1.9.1.3 1.6.6 1.5 1.6-.5 1.2-2.5 5.3-3.3 4.8-1-.1.7.2 1 .7.6.6-.3.7-1.3.4-2.2-.4-1.1-.3-1.4.5-.9.7.4 1.2.2 1.2-.4 0-.6.5-.8 1-.5.6.3 1.7 0 2.5-.8 2.1-2.1 24.4-1.8 27.1.3 1.8 1.4 1.8 1.4.5-.3s-.8-1.7 9.7-1.6c7.7.2 10.9.6 10.5 1.3-.5.8-.3.8.8 0 2-1.5 16.1-1.6 15.2 0-.5.8-.3.8.8 0 .8-.6 4.2-1.1 7.7-1l6.2.1.1-3.5v-20.4c-.1-12.1.3-17.3 1.2-18.4.8-1.1.8-1.4 0-.9-.8.5-1.2-1.5-1.2-7.5 0-4.5.3-8.5.8-8.8.5-.3 3.1-3.4 5.7-7 18.1-24.7 28.9-46.6 38.4-78.5 1.4-4.7 4.9-23.8 5.7-31.3 1.6-13.6.7-45.8-1.5-59.2-6.1-36.1-20.6-69.9-42.3-98.4l-6.8-8.8V93.1c0-11.3 0-26.1-.1-32.9V48h-96.5l-7.8-2.5c-7-2.3-25.7-6.4-36.2-8-4.5-.7-44-1.6-44.6-1.1z"/><path d="M426.6 91.8c-.3.5.1.9.9.9s1.2-.4.9-.9c-.3-.4-.7-.8-.9-.8-.2 0-.6.4-.9.8zM426.6 420.2c.3.5 1 .6 1.5.3 1.3-.9 1.1-1.2-.6-1.2-.8 0-1.2.4-.9.9zM163.3 459c-.1 1.1.2 2.2.6 2.4.4.3.7-.4.6-1.4-.2-2.7-1-3.3-1.2-1zM350.5 458c-.3.6.1.7.9.4 1.8-.7 2.1-1.4.7-1.4-.6 0-1.3.4-1.6 1zM379.3 459.3c-.1 1.1-.1 1.8 0 1.6.2-.2.8-1.1 1.5-2 .9-1.2.9-1.6-.1-1.6-.7 0-1.4.9-1.4 2zM383 457.4c0 .2.7.7 1.6 1 .8.3 1.2.2.9-.4-.6-1-2.5-1.4-2.5-.6zM83.5 458.9c-.3.5-.2 1.2.3 1.5.5.3.9-.1.9-.9 0-1.7-.3-1.9-1.2-.6zM93.4 460c0 1.3.4 1.6 1 1 .7-.7.7-1.3 0-2-.6-.6-1-.3-1 1zM101.3 459.3c0 .8 1.2 1.3 2.7 1.3 1.5 0 2.7-.5 2.7-1.3 0-.9-.4-1-1.4-.2-.9.8-1.7.8-2.6 0-1-.8-1.4-.7-1.4.2zM125.1 459.3c-.8 1-.7 1.4.2 1.4.8 0 1.4-.6 1.4-1.4 0-.7-.1-1.3-.2-1.3-.2 0-.8.6-1.4 1.3zM141.4 460c0 1.3.4 1.6 1 1 .7-.7.7-1.3 0-2-.6-.6-1-.3-1 1zM149.3 459.3c0 .8.6 1.4 1.4 1.4.9 0 1-.4.2-1.4-.6-.7-1.2-1.3-1.4-1.3-.1 0-.2.6-.2 1.3zM153.7 458.7c-1 .9-.9 2.3.1 2.3.5 0 .9-.7.9-1.5 0-1.7-.1-1.8-1-.8zM347.5 458.9c-.3.5-.2 1.2.3 1.5.5.3.9-.1.9-.9 0-1.7-.3-1.9-1.2-.6zM364.9 459.7c-1.3 1.6-1.2 1.7.4.4.9-.7 1.7-1.5 1.7-1.7 0-.8-.8-.3-2.1 1.3zM389.1 459.3c-.8 1-.7 1.4.2 1.4.8 0 1.4-.6 1.4-1.4 0-.7-.1-1.3-.2-1.3-.2 0-.8.6-1.4 1.3zM404.9 459.7c-1.3 1.6-1.2 1.7.4.4 1.6-1.3 2.1-2.1 1.3-2.1-.2 0-1 .8-1.7 1.7zM111 459.4c0 .2.7.7 1.6 1 .8.3 1.2.2.9-.4-.6-1-2.5-1.4-2.5-.6zM133.6 459.8c-.3.5.1.9.9.9s1.2-.4.9-.9c-.3-.4-.7-.8-.9-.8-.2 0-.6.4-.9.8zM411 459.4c0 .2.7.7 1.6 1 .8.3 1.2.2.9-.4-.6-1-2.5-1.4-2.5-.6zM371 462.2c0 .4.4.8.9.8.6 0 1.2-.4 1.5-.8.3-.5-.1-.9-.9-.9s-1.5.4-1.5.9zM375.5 461.9c-.3.5-.2 1.2.3 1.5.5.3.9-.1.9-.9 0-1.7-.3-1.9-1.2-.6zM417 462c0 .5.5 1 1.1 1 .5 0 .7-.5.4-1-.3-.6-.8-1-1.1-1-.2 0-.4.4-.4 1zM175 462.4c0 .2.8 1 1.8 1.7 1.5 1.3 1.6 1.2.3-.4s-2.1-2.1-2.1-1.3zM353.5 463.1c-.4.6-.5 1.2-.2 1.5.2.3.7-.2 1-1.1.7-1.7.1-2-.8-.4zM367.3 463.5c0 .8.4 1.2.9.9.5-.3.6-1 .3-1.5-.9-1.3-1.2-1.1-1.2.6zM87.6 464.2c.3.5 1 .6 1.5.3 1.3-.9 1.1-1.2-.6-1.2-.8 0-1.2.4-.9.9zM100 464c-.9.6-1 1-.3 1 .6 0 1.5-.5 1.8-1 .8-1.2.4-1.2-1.5 0zM103 464.1c0 .5.5.7 1 .4.6-.3 1-.8 1-1.1 0-.2-.4-.4-1-.4-.5 0-1 .5-1 1.1zM359.3 464.5c0 .8.4 1.2.9.9.5-.3.6-1 .3-1.5-.9-1.3-1.2-1.1-1.2.6zM125.3 465.5c0 .8.4 1.2.9.9.5-.3.6-1 .3-1.5-.9-1.3-1.2-1.1-1.2.6zM85 466.1c0 .5.5.7 1 .4.6-.3 1-.8 1-1.1 0-.2-.4-.4-1-.4-.5 0-1 .5-1 1.1zM137 466.1c0 .5.5.7 1 .4.6-.3 1-.8 1-1.1 0-.2-.4-.4-1-.4-.5 0-1 .5-1 1.1zM169.5 466c.3.5.8 1 1.1 1 .2 0 .4-.5.4-1 0-.6-.5-1-1.1-1-.5 0-.7.4-.4 1zM173 466.1c0 .5.5.7 1 .4.6-.3 1-.8 1-1.1 0-.2-.4-.4-1-.4-.5 0-1 .5-1 1.1zM381.5 466c.3.5.8 1 1.1 1 .2 0 .4-.5.4-1 0-.6-.5-1-1.1-1-.5 0-.7.4-.4 1zM367.7 466.7c-1 .9-.9 2.3.1 2.3.5 0 .9-.7.9-1.5 0-1.7-.1-1.8-1-.8zM99.5 467.9c-.3.5-.2 1.2.3 1.5.5.3.9-.1.9-.9 0-1.7-.3-1.9-1.2-.6zM116.6 467.8c-.3.5.1.9.9.9s1.2-.4.9-.9c-.3-.4-.7-.8-.9-.8-.2 0-.6.4-.9.8zM156 471.4c0 .2.8 1 1.8 1.7 1.5 1.3 1.6 1.2.3-.4s-2.1-2.1-2.1-1.3zM348 471.4c0 .2.8 1 1.8 1.7 1.5 1.3 1.6 1.2.3-.4s-2.1-2.1-2.1-1.3zM366.7 474.1c.7.7 1.5 1 1.8.7.3-.3-.2-.9-1.2-1.2-1.4-.6-1.5-.5-.6.5z"/></svg>